<svg width="24" height="24" viewBox="0 0 24 24" fill="none" xmlns="http://www.w3.org/2000/svg">
<g clip-path="url(#clip0_2961_35476)">
<path d="M21.41 11.58L12.41 2.58C12.05 2.22 11.55 2 11 2H4C2.9 2 2 2.9 2 4V11C2 11.55 2.22 12.05 2.59 12.42L11.59 21.42C11.95 21.78 12.45 22 13 22C13.55 22 14.05 21.78 14.41 21.41L21.41 14.41C21.78 14.05 22 13.55 22 13C22 12.45 21.77 11.94 21.41 11.58ZM5.5 7C4.67 7 4 6.33 4 5.5C4 4.67 4.67 4 5.5 4C6.33 4 7 4.67 7 5.5C7 6.33 6.33 7 5.5 7Z" fill="url(#paint0_linear_2961_35476)"/>
</g>
<defs>
<linearGradient id="paint0_linear_2961_35476" x1="-0.884615" y1="-0.115385" x2="22" y2="22" gradientUnits="userSpaceOnUse">
<stop stop-color="#FFE870"/>
<stop offset="0.239583" stop-color="#FF80C5"/>
<stop offset="0.65625" stop-color="#6442FF"/>
<stop offset="1" stop-color="#58ABF1"/>
</linearGradient>
<clipPath id="clip0_2961_35476">
<rect width="24" height="24" fill="white"/>
</clipPath>
</defs>
</svg>
