<svg width="40" height="41" viewBox="0 0 40 41" fill="none" xmlns="http://www.w3.org/2000/svg">
<path d="M2.91699 33.8333C2.56283 33.8333 2.26595 33.7135 2.02637 33.4739C1.78678 33.2343 1.66699 32.9375 1.66699 32.5833V27.1666C1.66699 26.3645 1.95259 25.6779 2.52378 25.1067C3.09492 24.5355 3.78155 24.25 4.58366 24.25H10.4587C10.9349 24.25 11.3872 24.368 11.8158 24.6041C12.2444 24.8402 12.6114 25.1666 12.917 25.5833C13.7225 26.75 14.7503 27.6527 16.0003 28.2916C17.2503 28.9305 18.5786 29.25 19.9852 29.25C21.4211 29.25 22.7618 28.9305 24.0072 28.2916C25.2526 27.6527 26.292 26.75 27.1253 25.5833C27.4338 25.1749 27.7956 24.8506 28.2108 24.6103C28.626 24.3701 29.0698 24.25 29.542 24.25H35.417C36.2191 24.25 36.9057 24.5355 37.4769 25.1067C38.0481 25.6779 38.3337 26.3645 38.3337 27.1666V32.5833C38.3337 32.9375 38.2139 33.2343 37.9743 33.4739C37.7347 33.7135 37.4378 33.8333 37.0837 33.8333H28.7503C28.3962 33.8333 28.0993 33.7135 27.8597 33.4739C27.6201 33.2343 27.5003 32.9375 27.5003 32.5833V28.875C26.5003 29.7916 25.3523 30.5 24.0563 31C22.7603 31.5 21.4083 31.75 20.0003 31.75C18.5837 31.75 17.2364 31.5 15.9587 31C14.6809 30.5 13.5281 29.7916 12.5003 28.875V32.5833C12.5003 32.9375 12.3805 33.2343 12.141 33.4739C11.9014 33.7135 11.6045 33.8333 11.2503 33.8333H2.91699ZM20.002 26.75C19.0286 26.75 18.0906 26.5208 17.1878 26.0625C16.285 25.6041 15.5559 24.9722 15.0003 24.1666C14.5559 23.5277 14.0212 23.0138 13.3962 22.625C12.7712 22.2361 12.0975 21.9722 11.3753 21.8333C12.1809 21 13.4448 20.3611 15.167 19.9166C16.8892 19.4722 18.5003 19.25 20.0003 19.25C21.5003 19.25 23.1184 19.4722 24.8545 19.9166C26.5906 20.3611 27.8614 21 28.667 21.8333C27.9448 21.9722 27.2712 22.2361 26.6462 22.625C26.0212 23.0138 25.4907 23.5251 25.0548 24.1586C24.4907 24.9695 23.7573 25.6041 22.8545 26.0625C21.9517 26.5208 21.0009 26.75 20.002 26.75ZM6.66208 21.3333C5.38758 21.3333 4.30588 20.8872 3.41699 19.995C2.5281 19.1029 2.08366 18.0196 2.08366 16.745C2.08366 15.4705 2.52974 14.3888 3.42191 13.5C4.31405 12.6111 5.39738 12.1666 6.67191 12.1666C7.94641 12.1666 9.0281 12.6127 9.91699 13.5049C10.8059 14.397 11.2503 15.4803 11.2503 16.7549C11.2503 18.0294 10.8042 19.1111 9.91208 20C9.01994 20.8888 7.9366 21.3333 6.66208 21.3333ZM33.3287 21.3333C32.0542 21.3333 30.9725 20.8872 30.0837 19.995C29.1948 19.1029 28.7503 18.0196 28.7503 16.745C28.7503 15.4705 29.1964 14.3888 30.0886 13.5C30.9807 12.6111 32.064 12.1666 33.3386 12.1666C34.6131 12.1666 35.6948 12.6127 36.5837 13.5049C37.4725 14.397 37.917 15.4803 37.917 16.7549C37.917 18.0294 37.4709 19.1111 36.5787 20C35.6866 20.8888 34.6033 21.3333 33.3287 21.3333ZM19.9954 16.3333C18.7209 16.3333 17.6392 15.8872 16.7503 14.995C15.8614 14.1029 15.417 13.0196 15.417 11.745C15.417 10.4705 15.8631 9.38885 16.7552 8.49996C17.6474 7.61107 18.7307 7.16663 20.0052 7.16663C21.2797 7.16663 22.3614 7.61271 23.2503 8.50488C24.1392 9.39701 24.5837 10.4803 24.5837 11.7549C24.5837 13.0294 24.1376 14.1111 23.2454 15C22.3533 15.8888 21.2699 16.3333 19.9954 16.3333Z" fill="url(#paint0_linear_3305_12920)"/>
<defs>
<linearGradient id="paint0_linear_3305_12920" x1="-3.62147" y1="4.34611" x2="25.7159" y2="43.329" gradientUnits="userSpaceOnUse">
<stop stop-color="#FFE870"/>
<stop offset="0.239583" stop-color="#FF80C5"/>
<stop offset="0.65625" stop-color="#6442FF"/>
<stop offset="1" stop-color="#58ABF1"/>
</linearGradient>
</defs>
</svg>
