<svg width="22" height="22" viewBox="0 0 22 22" fill="none" xmlns="http://www.w3.org/2000/svg">
<path d="M18.03 2.5598C16.36 1.1698 14.29 0.259805 12 0.0498047V2.0598C13.73 2.2498 15.31 2.9398 16.61 3.9798L18.03 2.5598Z" fill="url(#paint0_linear_2953_35927)"/>
<path d="M9.99875 2.0598V0.0498047C7.70875 0.249805 5.63875 1.1698 3.96875 2.5598L5.38875 3.9798C6.68875 2.9398 8.26875 2.2498 9.99875 2.0598Z" fill="url(#paint1_linear_2953_35927)"/>
<path d="M3.97688 5.38973L2.55687 3.96973C1.16688 5.63973 0.256875 7.70973 0.046875 9.99973H2.05687C2.24688 8.26973 2.93688 6.68973 3.97688 5.38973Z" fill="url(#paint2_linear_2953_35927)"/>
<path d="M19.9434 9.99973H21.9534C21.7434 7.70973 20.8334 5.63973 19.4434 3.96973L18.0234 5.38973C19.0634 6.68973 19.7534 8.26973 19.9434 9.99973Z" fill="url(#paint3_linear_2953_35927)"/>
<path d="M6 11L9.44 12.56L11 16L12.56 12.56L16 11L12.56 9.44L11 6L9.44 9.44L6 11Z" fill="url(#paint4_linear_2953_35927)"/>
<path d="M11 19.9997C7.89 19.9997 5.15 18.4097 3.54 15.9997H6V13.9997H0V19.9997H2V17.2997C3.99 20.1397 7.27 21.9997 11 21.9997C15.87 21.9997 20 18.8297 21.44 14.4397L19.48 13.9897C18.25 17.4797 14.92 19.9997 11 19.9997Z" fill="url(#paint5_linear_2953_35927)"/>
<defs>
<linearGradient id="paint0_linear_2953_35927" x1="11.1303" y1="-0.365868" x2="15.3019" y2="5.81968" gradientUnits="userSpaceOnUse">
<stop stop-color="#FFE870"/>
<stop offset="0.239583" stop-color="#FF80C5"/>
<stop offset="0.65625" stop-color="#6442FF"/>
<stop offset="1" stop-color="#58ABF1"/>
</linearGradient>
<linearGradient id="paint1_linear_2953_35927" x1="3.09904" y1="-0.365868" x2="7.27063" y2="5.81968" gradientUnits="userSpaceOnUse">
<stop stop-color="#FFE870"/>
<stop offset="0.239583" stop-color="#FF80C5"/>
<stop offset="0.65625" stop-color="#6442FF"/>
<stop offset="1" stop-color="#58ABF1"/>
</linearGradient>
<linearGradient id="paint2_linear_2953_35927" x1="-0.519952" y1="3.33194" x2="5.7065" y2="7.25357" gradientUnits="userSpaceOnUse">
<stop stop-color="#FFE870"/>
<stop offset="0.239583" stop-color="#FF80C5"/>
<stop offset="0.65625" stop-color="#6442FF"/>
<stop offset="1" stop-color="#58ABF1"/>
</linearGradient>
<linearGradient id="paint3_linear_2953_35927" x1="17.4566" y1="3.33194" x2="23.6831" y2="7.25357" gradientUnits="userSpaceOnUse">
<stop stop-color="#FFE870"/>
<stop offset="0.239583" stop-color="#FF80C5"/>
<stop offset="0.65625" stop-color="#6442FF"/>
<stop offset="1" stop-color="#58ABF1"/>
</linearGradient>
<linearGradient id="paint4_linear_2953_35927" x1="4.55769" y1="4.94231" x2="16" y2="16" gradientUnits="userSpaceOnUse">
<stop stop-color="#FFE870"/>
<stop offset="0.239583" stop-color="#FF80C5"/>
<stop offset="0.65625" stop-color="#6442FF"/>
<stop offset="1" stop-color="#58ABF1"/>
</linearGradient>
<linearGradient id="paint5_linear_2953_35927" x1="-3.09231" y1="13.1425" x2="3.0764" y2="29.099" gradientUnits="userSpaceOnUse">
<stop stop-color="#FFE870"/>
<stop offset="0.239583" stop-color="#FF80C5"/>
<stop offset="0.65625" stop-color="#6442FF"/>
<stop offset="1" stop-color="#58ABF1"/>
</linearGradient>
</defs>
</svg>
