<svg width="24" height="24" viewBox="0 0 24 24" fill="none" xmlns="http://www.w3.org/2000/svg">
<path fill-rule="evenodd" clip-rule="evenodd" d="M8.93608 18.0861C9.10207 18.1524 9.27445 18.1812 9.44564 18.1812C9.61683 18.1812 9.78921 18.1524 9.9552 18.0861C10.1386 18.0127 10.2914 17.897 10.4172 17.7712L20.0422 8.14624C20.3083 7.88022 20.4522 7.54138 20.4522 7.16215C20.4522 6.78291 20.3083 6.44407 20.0422 6.17805C19.7762 5.91203 19.4374 5.76807 19.0581 5.76807C18.6789 5.76807 18.3401 5.91203 18.074 6.17805L9.44564 14.8065L5.89224 11.2531C5.63177 10.9926 5.2991 10.8431 4.92064 10.8431C4.54219 10.8431 4.20952 10.9926 3.94905 11.2531C3.6778 11.5243 3.53906 11.8695 3.53906 12.2496C3.53906 12.6298 3.6778 12.975 3.94905 13.2462L8.47405 17.7712C8.59984 17.897 8.75266 18.0127 8.93608 18.0861Z" fill="url(#paint0_linear_2961_34977)"/>
<defs>
<linearGradient id="paint0_linear_2961_34977" x1="1.09966" y1="4.45514" x2="14.79" y2="22.4815" gradientUnits="userSpaceOnUse">
<stop stop-color="#FFE870"/>
<stop offset="0.239583" stop-color="#FF80C5"/>
<stop offset="0.65625" stop-color="#6442FF"/>
<stop offset="1" stop-color="#58ABF1"/>
</linearGradient>
</defs>
</svg>
