<svg width="40" height="41" viewBox="0 0 40 41" fill="none" xmlns="http://www.w3.org/2000/svg">
<g clip-path="url(#clip0_3305_6541)">
<path d="M21.4474 20.1833C21.0641 19.55 20.8307 18.8 20.8307 18C20.8307 15.7 22.6974 13.8333 24.9974 13.8333H26.6641C29.1807 13.8333 29.9974 12.1667 29.9974 12.1667C29.9974 12.1667 30.9141 22.1667 24.9974 22.1667C24.1807 22.1667 23.4307 21.9333 22.7974 21.5333C22.3974 22.6 21.8141 24.4667 21.5307 26.4667C23.6307 26.8333 25.3307 27.95 26.1474 29.4167C28.9641 27.4667 30.8307 24.2 30.8307 20.5H35.8307C35.8307 29.2333 28.7307 36.3333 19.9974 36.3333C11.2641 36.3333 4.16406 29.2333 4.16406 20.5C4.16406 11.7667 11.2641 4.66667 19.9974 4.66667V0.5L26.6641 7.16667L19.9974 13.8333V9.66667C14.0307 9.66667 9.16406 14.5333 9.16406 20.5C9.16406 24.1833 11.0141 27.45 13.8474 29.4167C14.6974 27.8833 16.5641 26.7167 18.8141 26.4167C18.6641 25.2667 18.3807 24.05 17.9974 23.0333C17.4141 23.5333 16.6641 23.8333 15.8307 23.8333C13.9974 23.8333 12.4974 22.3333 12.4974 20.5V18.85C12.4974 17.9167 12.1807 17.0333 11.6641 16.3333C11.6641 16.3333 19.0807 15.95 19.1641 20.5C19.1641 20.9833 19.0641 21.4333 18.8807 21.8333C18.1807 21.3 17.4474 20.8333 16.6641 20.5C17.6307 21.2167 18.9474 22.7833 19.9974 24.8333C21.1141 22.1333 22.7974 19.3833 24.9974 17.1667C23.7307 18.0333 22.5474 19.0333 21.4474 20.1833Z" fill="url(#paint0_linear_3305_6541)"/>
</g>
<defs>
<linearGradient id="paint0_linear_3305_6541" x1="-0.403245" y1="-3.29006" x2="40.1168" y2="31.3147" gradientUnits="userSpaceOnUse">
<stop stop-color="#FFE870"/>
<stop offset="0.239583" stop-color="#FF80C5"/>
<stop offset="0.65625" stop-color="#6442FF"/>
<stop offset="1" stop-color="#58ABF1"/>
</linearGradient>
<clipPath id="clip0_3305_6541">
<rect width="40" height="40" fill="white" transform="translate(0 0.5)"/>
</clipPath>
</defs>
</svg>
