<svg width="44" height="44" viewBox="0 0 44 44" fill="none" xmlns="http://www.w3.org/2000/svg">
<path fill-rule="evenodd" clip-rule="evenodd" d="M17.5326 13.4622C17.1944 13.8257 17 14.3852 17 15.1123V40.9727C17 41.6997 17.1944 42.2592 17.5453 42.6101L17.6369 42.6875L32.1271 28.1974V27.8718L17.6243 13.3848L17.5326 13.4622Z" fill="url(#paint0_linear_2961_35187)"/>
<path fill-rule="evenodd" clip-rule="evenodd" d="M36.9504 33.0449L32.1172 28.2101V27.8719L36.952 23.0371L37.0563 23.1019L42.7746 26.3515C44.412 27.2745 44.412 28.7949 42.7746 29.7306L37.0563 32.9801C37.0547 32.9801 36.9504 33.0449 36.9504 33.0449Z" fill="url(#paint1_linear_2961_35187)"/>
<path fill-rule="evenodd" clip-rule="evenodd" d="M37.0506 32.9801L32.1131 28.041L17.5312 42.6229C18.0639 43.195 18.96 43.2598 19.9621 42.7003L37.0506 32.9801Z" fill="url(#paint2_linear_2961_35187)"/>
<path fill-rule="evenodd" clip-rule="evenodd" d="M37.0506 23.1057L19.9621 13.3982C18.9616 12.8261 18.0639 12.9035 17.5312 13.4757L32.1115 28.0433L37.0506 23.1057Z" fill="url(#paint3_linear_2961_35187)"/>
<path opacity="0.2" fill-rule="evenodd" clip-rule="evenodd" d="M36.9493 32.877L19.9777 42.5197C19.0294 43.065 18.1838 43.027 17.6385 42.5323L17.5469 42.624L17.6385 42.7014C18.1838 43.1946 19.0294 43.2341 19.9777 42.6888L37.0662 32.9813L36.9493 32.877Z" fill="black"/>
<path opacity="0.12" fill-rule="evenodd" clip-rule="evenodd" d="M42.7728 29.5615L36.9375 32.8758L37.0418 32.9801L42.7601 29.7306C43.5788 29.2628 43.9819 28.6527 43.9819 28.041C43.9297 28.6005 43.514 29.1332 42.7728 29.5615Z" fill="black"/>
<path opacity="0.25" fill-rule="evenodd" clip-rule="evenodd" d="M19.9635 13.5657L42.7703 26.5228C43.5116 26.9384 43.9273 27.4837 43.9921 28.0432C43.9921 27.4331 43.589 26.8215 42.7703 26.3537L19.9635 13.3966C18.3261 12.4609 17 13.2401 17 15.1114V15.2806C17 13.4092 18.3261 12.6427 19.9635 13.5657Z" fill="white"/>
<path d="M23.2081 0.833984H6.78497C3.70908 0.833984 1.21875 3.30423 1.21875 6.35532V22.6494C1.21875 25.6971 3.70908 28.1673 6.78497 28.1673H23.2115C26.284 28.1673 28.7778 25.6971 28.7778 22.646V6.35532C28.7743 3.30423 26.284 0.833984 23.2081 0.833984Z" fill="url(#paint4_linear_2961_35187)"/>
<path d="M14.8795 7.11326L15.4375 6.1566C15.782 5.55868 16.5501 5.3571 17.1528 5.69876C17.7556 6.04043 17.9588 6.80235 17.6144 7.40026L12.2376 16.6321H16.1264C17.3871 16.6321 18.0932 18.1013 17.5455 19.1194H6.1444C5.44863 19.1194 4.89062 18.5659 4.89062 17.8758C4.89062 17.1856 5.44863 16.6321 6.1444 16.6321H9.34085L13.4328 9.59718L12.155 7.39685C11.8105 6.79893 12.0137 6.04385 12.6165 5.69535C13.2193 5.35368 13.9805 5.55526 14.3318 6.15318L14.8795 7.11326ZM10.0435 20.4007L8.83796 22.4746C8.49351 23.0725 7.7254 23.2741 7.12263 22.9324C6.51985 22.5908 6.31663 21.8288 6.66107 21.2309L7.55663 19.6934C8.56929 19.3825 9.39251 19.6217 10.0435 20.4007ZM20.4251 16.6389H23.687C24.3827 16.6389 24.9407 17.1924 24.9407 17.8826C24.9407 18.5728 24.3827 19.1263 23.687 19.1263H21.8752L23.098 21.2309C23.4424 21.8288 23.2392 22.5839 22.6364 22.9324C22.0336 23.2741 21.2724 23.0725 20.9211 22.4746C18.8613 18.9315 17.3147 16.2802 16.2883 14.5138C15.2377 12.7166 15.9886 10.9126 16.7292 10.301C17.5524 11.7018 18.7821 13.8168 20.4251 16.6389Z" fill="white"/>
<defs>
<linearGradient id="paint0_linear_2961_35187" x1="30.826" y1="14.8343" x2="7.61522" y2="21.0188" gradientUnits="userSpaceOnUse">
<stop stop-color="#00A0FF"/>
<stop offset="0.007" stop-color="#00A1FF"/>
<stop offset="0.26" stop-color="#00BEFF"/>
<stop offset="0.512" stop-color="#00D2FF"/>
<stop offset="0.76" stop-color="#00DFFF"/>
<stop offset="1" stop-color="#00E3FF"/>
</linearGradient>
<linearGradient id="paint1_linear_2961_35187" x1="44.9053" y1="28.0417" x2="16.6048" y2="28.0417" gradientUnits="userSpaceOnUse">
<stop stop-color="#FFE000"/>
<stop offset="0.409" stop-color="#FFBD00"/>
<stop offset="0.775" stop-color="#FFA500"/>
<stop offset="1" stop-color="#FF9C00"/>
</linearGradient>
<linearGradient id="paint2_linear_2961_35187" x1="34.3657" y1="30.7279" x2="15.7321" y2="62.0896" gradientUnits="userSpaceOnUse">
<stop stop-color="#FF3A44"/>
<stop offset="1" stop-color="#C31162"/>
</linearGradient>
<linearGradient id="paint3_linear_2961_35187" x1="13.8606" y1="4.86058" x2="22.1737" y2="18.8672" gradientUnits="userSpaceOnUse">
<stop stop-color="#32A071"/>
<stop offset="0.069" stop-color="#2DA771"/>
<stop offset="0.476" stop-color="#15CF74"/>
<stop offset="0.801" stop-color="#06E775"/>
<stop offset="1" stop-color="#00F076"/>
</linearGradient>
<linearGradient id="paint4_linear_2961_35187" x1="14.9965" y1="0.833984" x2="14.9965" y2="28.1673" gradientUnits="userSpaceOnUse">
<stop stop-color="#0ED4FC"/>
<stop offset="1" stop-color="#0C57EF"/>
</linearGradient>
</defs>
</svg>
