<svg width="40" height="41" viewBox="0 0 40 41" fill="none" xmlns="http://www.w3.org/2000/svg">
<path d="M6.66927 10.5002V33.8335H30.0026V37.1668H5.0026C4.0026 37.1668 3.33594 36.5002 3.33594 35.5002V10.5002H6.66927ZM13.3359 3.8335H33.3359C35.1859 3.8335 36.6693 5.3335 36.6693 7.16683V27.1668C36.6693 29.0168 35.1859 30.5002 33.3359 30.5002H13.3359C11.5026 30.5002 10.0026 29.0168 10.0026 27.1668V7.16683C10.0026 5.3335 11.5026 3.8335 13.3359 3.8335ZM27.1693 22.6668L26.5026 18.3335L29.6693 15.1668L25.3359 14.5002L23.3359 10.5002L21.3359 14.5002L17.0026 15.1668L20.1693 18.1668L19.3359 22.5002L23.3359 20.5002L27.1693 22.6668Z" fill="url(#paint0_linear_3305_17245)"/>
<defs>
<linearGradient id="paint0_linear_3305_17245" x1="-1.47175" y1="0.307855" x2="36.6693" y2="37.1668" gradientUnits="userSpaceOnUse">
<stop stop-color="#FFE870"/>
<stop offset="0.239583" stop-color="#FF80C5"/>
<stop offset="0.65625" stop-color="#6442FF"/>
<stop offset="1" stop-color="#58ABF1"/>
</linearGradient>
</defs>
</svg>
