<svg width="40" height="40" viewBox="0 0 40 40" fill="none" xmlns="http://www.w3.org/2000/svg">
<path d="M21.8823 37.9833L19.1656 31.6C21.7823 30.6333 24.2323 29.3333 26.499 27.8167L21.8823 37.9833ZM9.39896 21.8333L3.01562 19.1167L13.1823 14.5C11.6656 16.7667 10.3656 19.2167 9.39896 21.8333ZM36.0156 4.98335C36.0156 4.98335 27.7656 1.44835 18.3323 10.8833C14.6823 14.5333 12.499 18.55 11.0823 22.0667C10.6156 23.3167 10.9323 24.6833 11.849 25.6167L15.399 29.15C16.3156 30.0833 17.6823 30.3833 18.9323 29.9167C22.499 28.55 26.4656 26.3167 30.1156 22.6667C39.549 13.2333 36.0156 4.98335 36.0156 4.98335ZM24.2323 16.7667C22.9323 15.4667 22.9323 13.35 24.2323 12.05C25.5323 10.75 27.649 10.75 28.949 12.05C30.2323 13.35 30.249 15.4667 28.949 16.7667C27.649 18.0667 25.5323 18.0667 24.2323 16.7667ZM10.399 37.6667L16.4656 31.6C15.899 31.45 15.349 31.2 14.849 30.85L8.04896 37.6667H10.399ZM3.33229 37.6667H5.68229L13.6323 29.7333L11.2656 27.3833L3.33229 35.3167V37.6667ZM3.33229 32.95L10.149 26.15C9.79896 25.65 9.54896 25.1167 9.39896 24.5333L3.33229 30.6V32.95Z" fill="url(#paint0_linear_3305_18817)"/>
<defs>
<linearGradient id="paint0_linear_3305_18817" x1="-1.83747" y1="0.775727" x2="36.6643" y2="37.9827" gradientUnits="userSpaceOnUse">
<stop stop-color="#FFE870"/>
<stop offset="0.239583" stop-color="#FF80C5"/>
<stop offset="0.65625" stop-color="#6442FF"/>
<stop offset="1" stop-color="#58ABF1"/>
</linearGradient>
</defs>
</svg>
