<svg width="24" height="24" viewBox="0 0 24 24" fill="none" xmlns="http://www.w3.org/2000/svg">
<path d="M19 18H5V6H19M21 4H3C1.89 4 1 4.89 1 6V18C1 18.5304 1.21071 19.0391 1.58579 19.4142C1.96086 19.7893 2.46957 20 3 20H21C21.5304 20 22.0391 19.7893 22.4142 19.4142C22.7893 19.0391 23 18.5304 23 18V6C23 4.89 22.1 4 21 4ZM7 8H13V13H7V8ZM14 8H17V10H14V8ZM17 11V16H14V11H17ZM7 14H13V16H7V14Z" fill="url(#paint0_linear_2953_35950)"/>
<defs>
<linearGradient id="paint0_linear_2953_35950" x1="-2.17308" y1="2.30769" x2="15.4293" y2="25.6975" gradientUnits="userSpaceOnUse">
<stop stop-color="#FFE870"/>
<stop offset="0.239583" stop-color="#FF80C5"/>
<stop offset="0.65625" stop-color="#6442FF"/>
<stop offset="1" stop-color="#58ABF1"/>
</linearGradient>
</defs>
</svg>
