<svg width="25" height="25" viewBox="0 0 25 25" fill="none" xmlns="http://www.w3.org/2000/svg">
<g clip-path="url(#clip0_2494_16885)">
<path d="M12.511 5.35549C8.55505 5.35549 5.35549 8.55505 5.35549 12.511H7.39993C7.39993 9.68971 9.68971 7.39993 12.511 7.39993C15.3324 7.39993 17.6222 9.68971 17.6222 12.511H19.6666C19.6666 8.55505 16.467 5.35549 12.511 5.35549ZM13.5333 14.8519C14.4328 14.4533 15.0666 13.5639 15.0666 12.511C15.0666 11.1004 13.9217 9.95549 12.511 9.95549C11.1004 9.95549 9.95549 11.1004 9.95549 12.511C9.95549 13.5537 10.5893 14.4533 11.4888 14.8519V18.2253L8.00305 21.711L9.44438 23.1524L12.511 20.0857L15.5777 23.1524L17.019 21.711L13.5333 18.2253V14.8519ZM12.511 1.2666C6.30616 1.2666 1.2666 6.30616 1.2666 12.511H3.31105C3.31105 7.4306 7.4306 3.31105 12.511 3.31105C17.5915 3.31105 21.711 7.4306 21.711 12.511H23.7555C23.7555 6.30616 18.7159 1.2666 12.511 1.2666Z" fill="url(#paint0_linear_2494_16885)"/>
</g>
<defs>
<linearGradient id="paint0_linear_2494_16885" x1="-1.97699" y1="-1.04824" x2="23.0794" y2="23.8332" gradientUnits="userSpaceOnUse">
<stop stop-color="#FFE870"/>
<stop offset="0.239583" stop-color="#FF80C5"/>
<stop offset="0.65625" stop-color="#6442FF"/>
<stop offset="1" stop-color="#58ABF1"/>
</linearGradient>
<clipPath id="clip0_2494_16885">
<rect width="24.5333" height="24.5333" fill="white" transform="translate(0.244141 0.244385)"/>
</clipPath>
</defs>
</svg>
