<svg width="24" height="24" viewBox="0 0 24 24" fill="none" xmlns="http://www.w3.org/2000/svg">
<g clip-path="url(#clip0_2961_35494)">
<path d="M19 4H18V2H16V4H8V2H6V4H5C3.89 4 3.01 4.9 3.01 6L3 20C3 21.1 3.89 22 5 22H19C20.1 22 21 21.1 21 20V6C21 4.9 20.1 4 19 4ZM19 20H5V10H19V20ZM9 14H7V12H9V14ZM13 14H11V12H13V14ZM17 14H15V12H17V14ZM9 18H7V16H9V18ZM13 18H11V16H13V18ZM17 18H15V16H17V18Z" fill="url(#paint0_linear_2961_35494)"/>
</g>
<defs>
<linearGradient id="paint0_linear_2961_35494" x1="0.403846" y1="-0.115385" x2="23.0807" y2="19.6077" gradientUnits="userSpaceOnUse">
<stop stop-color="#FFE870"/>
<stop offset="0.239583" stop-color="#FF80C5"/>
<stop offset="0.65625" stop-color="#6442FF"/>
<stop offset="1" stop-color="#58ABF1"/>
</linearGradient>
<clipPath id="clip0_2961_35494">
<rect width="24" height="24" fill="white"/>
</clipPath>
</defs>
</svg>
