<svg width="25" height="25" viewBox="0 0 25 25" fill="none" xmlns="http://www.w3.org/2000/svg">
<g clip-path="url(#clip0_2494_16879)">
<path d="M7.39957 20.6888H11.4885C11.4885 21.8133 10.5685 22.7333 9.44401 22.7333C8.31957 22.7333 7.39957 21.8133 7.39957 20.6888ZM5.35512 19.6666H13.5329V17.6222H5.35512V19.6666ZM17.1107 9.95549C17.1107 13.8604 14.3916 15.9457 13.2569 16.5999H5.63112C4.49645 15.9457 1.77734 13.8604 1.77734 9.95549C1.77734 5.7235 5.21201 2.28883 9.44401 2.28883C13.676 2.28883 17.1107 5.7235 17.1107 9.95549ZM22.0889 7.77816L20.6885 8.42216L22.0889 9.06616L22.7329 10.4666L23.3769 9.06616L24.7773 8.42216L23.3769 7.77816L22.7329 6.37772L22.0889 7.77816ZM19.6662 6.37772L20.6271 4.27194L22.7329 3.31105L20.6271 2.35016L19.6662 0.244385L18.7053 2.35016L16.5996 3.31105L18.7053 4.27194L19.6662 6.37772Z" fill="url(#paint0_linear_2494_16879)"/>
</g>
<defs>
<linearGradient id="paint0_linear_2494_16879" x1="-1.53996" y1="-2.13425" x2="24.2058" y2="23.3116" gradientUnits="userSpaceOnUse">
<stop stop-color="#FFE870"/>
<stop offset="0.239583" stop-color="#FF80C5"/>
<stop offset="0.65625" stop-color="#6442FF"/>
<stop offset="1" stop-color="#58ABF1"/>
</linearGradient>
<clipPath id="clip0_2494_16879">
<rect width="24.5333" height="24.5333" fill="white" transform="translate(0.244141 0.244385)"/>
</clipPath>
</defs>
</svg>
