<svg width="40" height="40" viewBox="0 0 40 40" fill="none" xmlns="http://www.w3.org/2000/svg">
<g clip-path="url(#clip0_3305_20513)">
<path d="M3.43073 9.26675L1.66406 7.50008L7.4974 1.66675L13.3307 7.50008L11.5641 9.26675L8.86406 6.56675C8.51406 7.93342 8.33073 9.36675 8.33073 10.8334C8.33073 14.8667 9.6974 18.5834 11.9974 21.5501L10.2141 23.3334C7.48073 19.9167 5.83073 15.5667 5.83073 10.8334C5.83073 9.30008 5.9974 7.80008 6.33073 6.36675L3.43073 9.26675ZM23.0807 19.3667L18.6141 10.4167C17.9974 9.18342 16.4974 8.68341 15.2641 9.30008C14.0141 9.93341 13.5141 11.4334 14.1307 12.6667L22.1474 28.6668L16.7474 30.0001C16.1974 30.1501 15.7641 30.5501 15.5807 31.1001L14.9974 32.9668L25.3141 36.7168C26.1474 37.0001 27.4474 36.7501 28.2307 36.3501L37.4141 31.7667C38.8974 31.0167 39.6141 29.3001 39.0807 27.7334L36.6974 20.6167C36.2474 19.2501 34.9641 18.3334 33.5307 18.3334H25.9307C25.4141 18.3334 24.8974 18.4501 24.4474 18.6834L23.0807 19.3667Z" fill="url(#paint0_linear_3305_20513)"/>
</g>
<defs>
<linearGradient id="paint0_linear_3305_20513" x1="-3.75791" y1="-2.0533" x2="36.4887" y2="39.5177" gradientUnits="userSpaceOnUse">
<stop stop-color="#FFE870"/>
<stop offset="0.239583" stop-color="#FF80C5"/>
<stop offset="0.65625" stop-color="#6442FF"/>
<stop offset="1" stop-color="#58ABF1"/>
</linearGradient>
<clipPath id="clip0_3305_20513">
<rect width="40" height="40" fill="white"/>
</clipPath>
</defs>
</svg>
