<svg width="38" height="38" viewBox="0 0 38 38" fill="none" xmlns="http://www.w3.org/2000/svg">
<g clip-path="url(#clip0_2961_35199)">
<path d="M32.1203 29.8652L37.9984 14.309L20.2453 10.2715L17.9297 16.9215L32.1203 29.8652Z" fill="#247CE6"/>
<path d="M38.0016 30.4586L29.0359 37.9992L11.1641 33.368L15.9734 24.6992L38.0016 30.4586Z" fill="url(#paint0_linear_2961_35199)"/>
<path d="M5.22344 18.8813L0.710938 5.87812L20.8391 0L19.2359 16.8625L5.22344 18.8813Z" fill="url(#paint1_linear_2961_35199)"/>
<path d="M33.1313 21.9688L27.4906 12.35L27.6094 12.2906L20.8406 0L0 22.5031V38L37.8813 30.4594L33.1313 21.9688Z" fill="url(#paint2_linear_2961_35199)"/>
<path d="M30.875 7.125H7.125V30.875H30.875V7.125Z" fill="black"/>
<path d="M9.32031 26.4221H18.2266V27.9065H9.32031V26.4221ZM13.2391 10.2128H15.1984L19.3547 20.0096H17.0984L16.2078 17.8128H12.1109L11.2203 20.0096H9.02344L13.2391 10.2128ZM15.4953 15.9721L14.1891 12.8253L12.8828 15.9721H15.4953ZM18.8203 15.2003C18.7874 13.8204 19.3211 12.4874 20.2971 11.5114C21.273 10.5354 22.6061 10.0018 23.9859 10.0346C25.8266 10.0346 26.9547 10.6284 27.9047 11.5784L26.5391 13.1815C25.7672 12.469 24.9953 12.0534 23.9859 12.0534C22.3234 12.0534 21.1359 13.419 21.1359 15.1409C21.1359 16.8628 22.3234 18.2284 23.9859 18.2284C25.1141 18.2284 25.8266 17.7534 26.5984 17.0409L27.9641 18.4659C26.9547 19.5346 25.8266 20.2471 23.9266 20.2471C22.5725 20.2812 21.2629 19.7623 20.2996 18.8102C19.3362 17.858 18.8021 16.5546 18.8203 15.2003Z" fill="white"/>
</g>
<defs>
<linearGradient id="paint0_linear_2961_35199" x1="14.1328" y1="689.699" x2="2694.91" y2="689.699" gradientUnits="userSpaceOnUse">
<stop offset="0.19" stop-color="#00DAF0"/>
<stop offset="0.9" stop-color="#247CE6"/>
</linearGradient>
<linearGradient id="paint1_linear_2961_35199" x1="4690.56" y1="-1.28517e+06" x2="141361" y2="-1.28517e+06" gradientUnits="userSpaceOnUse">
<stop offset="0.19" stop-color="#00DAF0"/>
<stop offset="0.9" stop-color="#247CE6"/>
</linearGradient>
<linearGradient id="paint2_linear_2961_35199" x1="2489.89" y1="3920.53" x2="599.332" y2="1298.8" gradientUnits="userSpaceOnUse">
<stop offset="0.09" stop-color="#1DDF93"/>
<stop offset="0.48" stop-color="#00DAF0"/>
<stop offset="0.9" stop-color="#247CE6"/>
</linearGradient>
<clipPath id="clip0_2961_35199">
<rect width="38" height="38" fill="white"/>
</clipPath>
</defs>
</svg>
