<svg width="40" height="41" viewBox="0 0 40 41" fill="none" xmlns="http://www.w3.org/2000/svg">
<g clip-path="url(#clip0_3305_24384)">
<path d="M6.66667 10.5H36.6667V7.16666H6.66667C4.83333 7.16666 3.33333 8.66666 3.33333 10.5V28.8333H0V33.8333H23.3333V28.8333H6.66667V10.5ZM38.3333 13.8333H28.3333C27.4167 13.8333 26.6667 14.5833 26.6667 15.5V32.1667C26.6667 33.0833 27.4167 33.8333 28.3333 33.8333H38.3333C39.25 33.8333 40 33.0833 40 32.1667V15.5C40 14.5833 39.25 13.8333 38.3333 13.8333ZM36.6667 28.8333H30V17.1667H36.6667V28.8333Z" fill="url(#paint0_linear_3305_24384)"/>
</g>
<defs>
<linearGradient id="paint0_linear_3305_24384" x1="-5.76923" y1="4.34615" x2="22.7716" y2="45.7184" gradientUnits="userSpaceOnUse">
<stop stop-color="#FFE870"/>
<stop offset="0.239583" stop-color="#FF80C5"/>
<stop offset="0.65625" stop-color="#6442FF"/>
<stop offset="1" stop-color="#58ABF1"/>
</linearGradient>
<clipPath id="clip0_3305_24384">
<rect width="40" height="40" fill="white" transform="translate(0 0.5)"/>
</clipPath>
</defs>
</svg>
