<svg width="40" height="41" viewBox="0 0 40 41" fill="none" xmlns="http://www.w3.org/2000/svg">
<g clip-path="url(#clip0_3305_6852)">
<path d="M16.0693 13.2335C16.4526 12.4002 16.6693 11.4835 16.6693 10.5002C16.6693 6.81683 13.6859 3.8335 10.0026 3.8335C6.31927 3.8335 3.33594 6.81683 3.33594 10.5002C3.33594 14.1835 6.31927 17.1668 10.0026 17.1668C10.9859 17.1668 11.9026 16.9502 12.7359 16.5668L16.6693 20.5002L12.7359 24.4335C11.9026 24.0502 10.9859 23.8335 10.0026 23.8335C6.31927 23.8335 3.33594 26.8168 3.33594 30.5002C3.33594 34.1835 6.31927 37.1668 10.0026 37.1668C13.6859 37.1668 16.6693 34.1835 16.6693 30.5002C16.6693 29.5168 16.4526 28.6002 16.0693 27.7668L20.0026 23.8335L31.6693 35.5002H36.6693V33.8335L16.0693 13.2335ZM10.0026 13.8335C8.16927 13.8335 6.66927 12.3502 6.66927 10.5002C6.66927 8.65016 8.16927 7.16683 10.0026 7.16683C11.8359 7.16683 13.3359 8.65016 13.3359 10.5002C13.3359 12.3502 11.8359 13.8335 10.0026 13.8335ZM10.0026 33.8335C8.16927 33.8335 6.66927 32.3502 6.66927 30.5002C6.66927 28.6502 8.16927 27.1668 10.0026 27.1668C11.8359 27.1668 13.3359 28.6502 13.3359 30.5002C13.3359 32.3502 11.8359 33.8335 10.0026 33.8335ZM20.0026 21.3335C19.5359 21.3335 19.1693 20.9668 19.1693 20.5002C19.1693 20.0335 19.5359 19.6668 20.0026 19.6668C20.4693 19.6668 20.8359 20.0335 20.8359 20.5002C20.8359 20.9668 20.4693 21.3335 20.0026 21.3335ZM31.6693 5.50016L21.6693 15.5002L25.0026 18.8335L36.6693 7.16683V5.50016H31.6693Z" fill="url(#paint0_linear_3305_6852)"/>
</g>
<defs>
<linearGradient id="paint0_linear_3305_6852" x1="-1.47176" y1="0.307855" x2="36.6693" y2="37.1668" gradientUnits="userSpaceOnUse">
<stop stop-color="#FFE870"/>
<stop offset="0.239583" stop-color="#FF80C5"/>
<stop offset="0.65625" stop-color="#6442FF"/>
<stop offset="1" stop-color="#58ABF1"/>
</linearGradient>
<clipPath id="clip0_3305_6852">
<rect width="40" height="40" fill="white" transform="translate(0 0.5)"/>
</clipPath>
</defs>
</svg>
