<svg width="40" height="41" viewBox="0 0 40 41" fill="none" xmlns="http://www.w3.org/2000/svg">
<g clip-path="url(#clip0_3305_8127)">
<path d="M20.0026 3.8335C10.8193 3.8335 3.33594 11.3168 3.33594 20.5002C3.33594 29.6835 10.8193 37.1668 20.0026 37.1668C22.3026 37.1668 24.1693 35.3002 24.1693 33.0002C24.1693 31.9835 23.7859 31.0002 23.1026 30.2168C22.9693 30.0502 22.8859 29.8668 22.8859 29.6668C22.8859 29.2002 23.2526 28.8335 23.7193 28.8335H26.6693C32.1859 28.8335 36.6693 24.3502 36.6693 18.8335C36.6693 10.5668 29.1859 3.8335 20.0026 3.8335ZM29.1693 22.1668C27.7859 22.1668 26.6693 21.0502 26.6693 19.6668C26.6693 18.2835 27.7859 17.1668 29.1693 17.1668C30.5526 17.1668 31.6693 18.2835 31.6693 19.6668C31.6693 21.0502 30.5526 22.1668 29.1693 22.1668ZM24.1693 15.5002C22.7859 15.5002 21.6693 14.3835 21.6693 13.0002C21.6693 11.6168 22.7859 10.5002 24.1693 10.5002C25.5526 10.5002 26.6693 11.6168 26.6693 13.0002C26.6693 14.3835 25.5526 15.5002 24.1693 15.5002ZM8.33594 19.6668C8.33594 18.2835 9.4526 17.1668 10.8359 17.1668C12.2193 17.1668 13.3359 18.2835 13.3359 19.6668C13.3359 21.0502 12.2193 22.1668 10.8359 22.1668C9.4526 22.1668 8.33594 21.0502 8.33594 19.6668ZM18.3359 13.0002C18.3359 14.3835 17.2193 15.5002 15.8359 15.5002C14.4526 15.5002 13.3359 14.3835 13.3359 13.0002C13.3359 11.6168 14.4526 10.5002 15.8359 10.5002C17.2193 10.5002 18.3359 11.6168 18.3359 13.0002Z" fill="url(#paint0_linear_3305_8127)"/>
</g>
<defs>
<linearGradient id="paint0_linear_3305_8127" x1="-1.47176" y1="0.307855" x2="36.6693" y2="37.1668" gradientUnits="userSpaceOnUse">
<stop stop-color="#FFE870"/>
<stop offset="0.239583" stop-color="#FF80C5"/>
<stop offset="0.65625" stop-color="#6442FF"/>
<stop offset="1" stop-color="#58ABF1"/>
</linearGradient>
<clipPath id="clip0_3305_8127">
<rect width="40" height="40" fill="white" transform="translate(0 0.5)"/>
</clipPath>
</defs>
</svg>
