<svg width="40" height="41" viewBox="0 0 40 41" fill="none" xmlns="http://www.w3.org/2000/svg">
<g clip-path="url(#clip0_3305_3922)">
<path d="M19.9997 3.83337C10.7997 3.83337 3.33301 11.3 3.33301 20.5C3.33301 29.7 10.7997 37.1667 19.9997 37.1667C29.1997 37.1667 36.6663 29.7 36.6663 20.5C36.6663 11.3 29.1997 3.83337 19.9997 3.83337ZM18.333 33.7167C11.7497 32.9 6.66634 27.3 6.66634 20.5C6.66634 19.4667 6.79967 18.4834 7.01634 17.5167L14.9997 25.5V27.1667C14.9997 29 16.4997 30.5 18.333 30.5V33.7167ZM29.833 29.4834C29.3997 28.1334 28.1663 27.1667 26.6663 27.1667H24.9997V22.1667C24.9997 21.25 24.2497 20.5 23.333 20.5H13.333V17.1667H16.6663C17.583 17.1667 18.333 16.4167 18.333 15.5V12.1667H21.6663C23.4997 12.1667 24.9997 10.6667 24.9997 8.83337V8.15004C29.883 10.1334 33.333 14.9167 33.333 20.5C33.333 23.9667 31.9997 27.1167 29.833 29.4834Z" fill="url(#paint0_linear_3305_3922)"/>
</g>
<defs>
<linearGradient id="paint0_linear_3305_3922" x1="-1.47468" y1="0.307733" x2="36.6663" y2="37.1667" gradientUnits="userSpaceOnUse">
<stop stop-color="#FFE870"/>
<stop offset="0.239583" stop-color="#FF80C5"/>
<stop offset="0.65625" stop-color="#6442FF"/>
<stop offset="1" stop-color="#58ABF1"/>
</linearGradient>
<clipPath id="clip0_3305_3922">
<rect width="40" height="40" fill="white" transform="translate(0 0.5)"/>
</clipPath>
</defs>
</svg>
