<svg width="23" height="33" viewBox="0 0 23 33" fill="none" xmlns="http://www.w3.org/2000/svg">
<g clip-path="url(#clip0_2961_35167)">
<path d="M14.3731 0H2.1565C1.58506 0.0017061 1.0375 0.239333 0.633432 0.660967C0.229364 1.0826 0.00163502 1.65397 0 2.25025V30.7498C0.00163262 31.3457 0.229116 31.9168 0.632803 32.3384C1.03649 32.76 1.5836 32.9978 2.15473 33H20.8426C21.4139 32.9981 21.9612 32.7603 22.3651 32.3387C22.769 31.9171 22.9966 31.3459 22.9982 30.7498V9.00008L17.9673 5.24966L14.3731 0Z" fill="#0F9D58"/>
<path d="M5.75 16.125V26.9957H17.246V16.125H5.75ZM10.7836 25.5001H7.18943V23.6249H10.7836V25.5001ZM10.7836 22.4998H7.18943V20.6218H10.7836V22.4998ZM10.7836 19.4995H7.18943V17.6242H10.7836V19.4995ZM15.8145 25.5038H12.2204V23.6286H15.8145V25.5038ZM15.8145 22.5035H12.2204V20.6218H15.8145V22.5035ZM15.8145 19.5031H12.2204V17.6279H15.8145V19.5031Z" fill="#F1F1F1"/>
<path d="M15.0078 8.3418L23.0017 16.6823V9.00043L15.0078 8.3418Z" fill="url(#paint0_linear_2961_35167)"/>
<path d="M14.375 0V6.74983C14.3749 7.04537 14.4306 7.33804 14.5389 7.61111C14.6473 7.88418 14.8061 8.13229 15.0064 8.34127C15.2066 8.55025 15.4444 8.716 15.7061 8.82904C15.9678 8.94208 16.2483 9.00021 16.5315 9.00008H23.0001L14.375 0Z" fill="#87CEAC"/>
<path d="M2.1565 0C1.58506 0.0017061 1.0375 0.239333 0.633429 0.660967C0.229361 1.0826 0.00163502 1.65397 0 2.25025V2.435C0.00163502 1.83872 0.229361 1.26735 0.633429 0.845717C1.0375 0.424082 1.58506 0.186456 2.1565 0.18475H14.3731V0H2.1565Z" fill="white" fill-opacity="0.2"/>
<path d="M20.8435 32.8147H2.1565C1.58506 32.813 1.0375 32.5754 0.633429 32.1537C0.229361 31.7321 0.00163502 31.1607 0 30.5645V30.7492C0.00163502 31.3455 0.229361 31.9169 0.633429 32.3385C1.0375 32.7601 1.58506 32.9977 2.1565 32.9995H20.8444C21.4157 32.9975 21.963 32.7598 22.3669 32.3382C22.7708 31.9166 22.9984 31.3453 23 30.7492V30.5645C22.9984 31.1607 22.7706 31.7321 22.3666 32.1537C21.9625 32.5754 21.4149 32.813 20.8435 32.8147Z" fill="#263238" fill-opacity="0.2"/>
<path d="M16.5315 9.00025C16.2483 9.00038 15.9678 8.94225 15.7061 8.82921C15.4444 8.71617 15.2066 8.55042 15.0064 8.34144C14.8061 8.13246 14.6473 7.88435 14.5389 7.61128C14.4306 7.33821 14.3749 7.04554 14.375 6.75V6.93475C14.3749 7.23029 14.4306 7.52296 14.5389 7.79603C14.6473 8.0691 14.8061 8.31721 15.0064 8.52619C15.2066 8.73517 15.4444 8.90092 15.7061 9.01396C15.9678 9.127 16.2483 9.18512 16.5315 9.185H23.0001V9.00025H16.5315Z" fill="#263238" fill-opacity="0.1"/>
<path d="M14.3731 0H2.1565C1.58506 0.0017061 1.0375 0.239333 0.633432 0.660967C0.229364 1.0826 0.00163502 1.65397 0 2.25025V30.7498C0.00163262 31.3457 0.229116 31.9168 0.632803 32.3384C1.03649 32.76 1.5836 32.9978 2.15473 33H20.8426C21.4139 32.9981 21.9612 32.7603 22.3651 32.3387C22.769 31.9171 22.9966 31.3459 22.9982 30.7498V9.00008L14.3731 0Z" fill="url(#paint1_radial_2961_35167)"/>
</g>
<defs>
<linearGradient id="paint0_linear_2961_35167" x1="18.9984" y1="8.89974" x2="18.9984" y2="16.528" gradientUnits="userSpaceOnUse">
<stop stop-color="#263238" stop-opacity="0.2"/>
<stop offset="1" stop-color="#263238" stop-opacity="0.02"/>
</linearGradient>
<radialGradient id="paint1_radial_2961_35167" cx="0" cy="0" r="1" gradientUnits="userSpaceOnUse" gradientTransform="translate(0.716735 1.20304) scale(37.081 38.6931)">
<stop stop-color="white" stop-opacity="0.1"/>
<stop offset="1" stop-color="white" stop-opacity="0"/>
</radialGradient>
<clipPath id="clip0_2961_35167">
<rect width="23" height="33" fill="white"/>
</clipPath>
</defs>
</svg>
