<svg width="40" height="41" viewBox="0 0 40 41" fill="none" xmlns="http://www.w3.org/2000/svg">
<g clip-path="url(#clip0_3305_20498)">
<path d="M3.43073 9.7665L1.66406 7.99984L7.4974 2.1665L13.3307 7.99984L11.5641 9.7665L8.86406 7.0665C8.51406 8.43317 8.33073 9.8665 8.33073 11.3332C8.33073 15.3665 9.6974 19.0832 11.9974 22.0498L10.2141 23.8332C7.48073 20.4165 5.83073 16.0665 5.83073 11.3332C5.83073 9.79984 5.9974 8.29984 6.33073 6.8665L3.43073 9.7665ZM23.0807 19.8665L18.6141 10.9165C17.9974 9.68317 16.4974 9.18317 15.2641 9.79984C14.0141 10.4332 13.5141 11.9332 14.1307 13.1665L22.1474 29.1665L16.7474 30.4998C16.1974 30.6498 15.7641 31.0498 15.5807 31.5998L14.9974 33.4665L25.3141 37.2165C26.1474 37.4998 27.4474 37.2498 28.2307 36.8498L37.4141 32.2665C38.8974 31.5165 39.6141 29.7998 39.0807 28.2332L36.6974 21.1165C36.2474 19.7498 34.9641 18.8332 33.5307 18.8332H25.9307C25.4141 18.8332 24.8974 18.9498 24.4474 19.1832L23.0807 19.8665Z" fill="url(#paint0_linear_3305_20498)"/>
</g>
<defs>
<linearGradient id="paint0_linear_3305_20498" x1="-3.75791" y1="-1.55354" x2="36.4887" y2="40.0174" gradientUnits="userSpaceOnUse">
<stop stop-color="#FFE870"/>
<stop offset="0.239583" stop-color="#FF80C5"/>
<stop offset="0.65625" stop-color="#6442FF"/>
<stop offset="1" stop-color="#58ABF1"/>
</linearGradient>
<clipPath id="clip0_3305_20498">
<rect width="40" height="40" fill="white" transform="translate(0 0.5)"/>
</clipPath>
</defs>
</svg>
