<svg width="40" height="41" viewBox="0 0 40 41" fill="none" xmlns="http://www.w3.org/2000/svg">
<path d="M30.0026 23.8333H33.3359V28.8333H38.3359V32.1667H33.3359V37.1667H30.0026V32.1667H25.0026V28.8333H30.0026V23.8333ZM6.66927 5.5H30.0026C30.8867 5.5 31.7345 5.85119 32.3596 6.47631C32.9847 7.10143 33.3359 7.94928 33.3359 8.83333V20.6333C30.7526 20.2 28.2026 20.8 26.1359 22.1667H20.0026V28.8333H21.8026C21.6193 29.9667 21.6193 31.0833 21.8026 32.1667H6.66927C5.78522 32.1667 4.93737 31.8155 4.31225 31.1904C3.68713 30.5652 3.33594 29.7174 3.33594 28.8333V8.83333C3.33594 7.94928 3.68713 7.10143 4.31225 6.47631C4.93737 5.85119 5.78522 5.5 6.66927 5.5ZM6.66927 12.1667V18.8333H16.6693V12.1667H6.66927ZM20.0026 12.1667V18.8333H30.0026V12.1667H20.0026ZM6.66927 22.1667V28.8333H16.6693V22.1667H6.66927Z" fill="url(#paint0_linear_3305_9084)"/>
<defs>
<linearGradient id="paint0_linear_3305_9084" x1="-1.71214" y1="2.15064" x2="34.4645" y2="40.7913" gradientUnits="userSpaceOnUse">
<stop stop-color="#FFE870"/>
<stop offset="0.239583" stop-color="#FF80C5"/>
<stop offset="0.65625" stop-color="#6442FF"/>
<stop offset="1" stop-color="#58ABF1"/>
</linearGradient>
</defs>
</svg>
