<svg width="40" height="41" viewBox="0 0 40 41" fill="none" xmlns="http://www.w3.org/2000/svg">
<path d="M31.667 30.5H8.33366V10.5H31.667M35.0003 7.16663H5.00033C3.15033 7.16663 1.66699 8.64996 1.66699 10.5V30.5C1.66699 31.384 2.01818 32.2319 2.6433 32.857C3.26842 33.4821 4.11627 33.8333 5.00033 33.8333H35.0003C35.8844 33.8333 36.7322 33.4821 37.3573 32.857C37.9825 32.2319 38.3337 31.384 38.3337 30.5V10.5C38.3337 8.64996 36.8337 7.16663 35.0003 7.16663ZM11.667 13.8333H21.667V22.1666H11.667V13.8333ZM23.3337 13.8333H28.3337V17.1666H23.3337V13.8333ZM28.3337 18.8333V27.1666H23.3337V18.8333H28.3337ZM11.667 23.8333H21.667V27.1666H11.667V23.8333Z" fill="url(#paint0_linear_3305_14977)"/>
<defs>
<linearGradient id="paint0_linear_3305_14977" x1="-3.62147" y1="4.34611" x2="25.7159" y2="43.329" gradientUnits="userSpaceOnUse">
<stop stop-color="#FFE870"/>
<stop offset="0.239583" stop-color="#FF80C5"/>
<stop offset="0.65625" stop-color="#6442FF"/>
<stop offset="1" stop-color="#58ABF1"/>
</linearGradient>
</defs>
</svg>
