<svg width="40" height="41" viewBox="0 0 40 41" fill="none" xmlns="http://www.w3.org/2000/svg">
<g clip-path="url(#clip0_3305_18486)">
<path d="M19.9859 3.8335C10.7859 3.8335 3.33594 11.3002 3.33594 20.5002C3.33594 29.7002 10.7859 37.1668 19.9859 37.1668C29.2026 37.1668 36.6693 29.7002 36.6693 20.5002C36.6693 11.3002 29.2026 3.8335 19.9859 3.8335ZM31.5359 13.8335H26.6193C26.0859 11.7502 25.3193 9.75016 24.3193 7.90016C27.3859 8.95016 29.9359 11.0835 31.5359 13.8335ZM20.0026 7.2335C21.3859 9.2335 22.4693 11.4502 23.1859 13.8335H16.8193C17.5359 11.4502 18.6193 9.2335 20.0026 7.2335ZM7.1026 23.8335C6.83594 22.7668 6.66927 21.6502 6.66927 20.5002C6.66927 19.3502 6.83594 18.2335 7.1026 17.1668H12.7359C12.6026 18.2668 12.5026 19.3668 12.5026 20.5002C12.5026 21.6335 12.6026 22.7335 12.7359 23.8335H7.1026ZM8.46927 27.1668H13.3859C13.9193 29.2502 14.6859 31.2502 15.6859 33.1002C12.6193 32.0502 10.0693 29.9335 8.46927 27.1668ZM13.3859 13.8335H8.46927C10.0693 11.0668 12.6193 8.95016 15.6859 7.90016C14.6859 9.75016 13.9193 11.7502 13.3859 13.8335ZM20.0026 33.7668C18.6193 31.7668 17.5359 29.5502 16.8193 27.1668H23.1859C22.4693 29.5502 21.3859 31.7668 20.0026 33.7668ZM23.9026 23.8335H16.1026C15.9526 22.7335 15.8359 21.6335 15.8359 20.5002C15.8359 19.3668 15.9526 18.2502 16.1026 17.1668H23.9026C24.0526 18.2502 24.1693 19.3668 24.1693 20.5002C24.1693 21.6335 24.0526 22.7335 23.9026 23.8335ZM24.3193 33.1002C25.3193 31.2502 26.0859 29.2502 26.6193 27.1668H31.5359C29.9359 29.9168 27.3859 32.0502 24.3193 33.1002ZM27.2693 23.8335C27.4026 22.7335 27.5026 21.6335 27.5026 20.5002C27.5026 19.3668 27.4026 18.2668 27.2693 17.1668H32.9026C33.1693 18.2335 33.3359 19.3502 33.3359 20.5002C33.3359 21.6502 33.1693 22.7668 32.9026 23.8335H27.2693Z" fill="url(#paint0_linear_3305_18486)"/>
</g>
<defs>
<linearGradient id="paint0_linear_3305_18486" x1="-1.47176" y1="0.307855" x2="36.6693" y2="37.1668" gradientUnits="userSpaceOnUse">
<stop stop-color="#FFE870"/>
<stop offset="0.239583" stop-color="#FF80C5"/>
<stop offset="0.65625" stop-color="#6442FF"/>
<stop offset="1" stop-color="#58ABF1"/>
</linearGradient>
<clipPath id="clip0_3305_18486">
<rect width="40" height="40" fill="white" transform="translate(0 0.5)"/>
</clipPath>
</defs>
</svg>
