<svg width="21" height="15" viewBox="0 0 21 15" fill="none" xmlns="http://www.w3.org/2000/svg">
<path d="M7.07827 15C6.94409 15 6.82109 14.9776 6.70926 14.9327C6.59744 14.8879 6.48562 14.8094 6.3738 14.6973L0.301917 8.60987C0.100639 8.40807 0 8.16144 0 7.86996C0 7.57847 0.100639 7.33184 0.301917 7.13004C0.503195 6.92825 0.738019 6.82735 1.00639 6.82735C1.27476 6.82735 1.50958 6.92825 1.71086 7.13004L7.07827 12.5112L19.2556 0.302691C19.4569 0.100897 19.6973 0 19.9768 0C20.2564 0 20.4968 0.100897 20.6981 0.302691C20.8994 0.504484 21 0.745516 21 1.02578C21 1.30605 20.8994 1.54709 20.6981 1.74888L7.78275 14.6973C7.67093 14.8094 7.55911 14.8879 7.44728 14.9327C7.33546 14.9776 7.21246 15 7.07827 15Z" fill="url(#paint0_linear_2961_34640)"/>
<defs>
<linearGradient id="paint0_linear_2961_34640" x1="-3.02885" y1="-1.58654" x2="13.3888" y2="20.6256" gradientUnits="userSpaceOnUse">
<stop stop-color="#FFE870"/>
<stop offset="0.239583" stop-color="#FF80C5"/>
<stop offset="0.65625" stop-color="#6442FF"/>
<stop offset="1" stop-color="#58ABF1"/>
</linearGradient>
</defs>
</svg>
