<svg width="55" height="55" viewBox="0 0 55 55" fill="none" xmlns="http://www.w3.org/2000/svg">
<path d="M20.6885 40.9343C20.9966 41.0575 21.321 41.1128 21.651 41.1128C21.9811 41.1128 22.3055 41.0575 22.6135 40.9343C22.9463 40.8012 23.2357 40.5863 23.4868 40.3351L45.5441 18.2779C46.0522 17.7697 46.3218 17.133 46.3218 16.4134C46.3218 15.6939 46.0522 15.0571 45.5441 14.549C45.036 14.0409 44.3992 13.7713 43.6797 13.7713C42.9601 13.7713 42.3234 14.0409 41.8152 14.549L21.651 34.7132L13.117 26.1792C12.6168 25.6789 11.9924 25.4015 11.2812 25.4015C10.5701 25.4015 9.9457 25.6789 9.44545 26.1792C8.92993 26.6947 8.66776 27.3441 8.66776 28.0723C8.66776 28.8004 8.92993 29.4498 9.44545 29.9654L19.8152 40.3351C20.0664 40.5863 20.3558 40.8012 20.6885 40.9343Z" fill="#B5107F" stroke="#B5107F" stroke-width="1.78947"/>
</svg>
