<svg width="150" height="48" viewBox="0 0 150 48" fill="none" xmlns="http://www.w3.org/2000/svg">
<g clip-path="url(#clip0_2961_34944)">
<path d="M24.9535 40.0604L5.56929 21.9262C4.92175 21.3875 4.09219 21.1156 3.25019 21.1661C2.40819 21.2166 1.61735 21.5858 1.03936 22.1981C0.461373 22.8104 0.139886 23.6195 0.140626 24.4602C0.141367 25.3008 0.46428 26.1094 1.04335 26.7207L22.8219 47.0935C23.4585 47.6895 24.3059 48.01 25.179 47.9851C26.052 47.9603 26.8797 47.592 27.4811 46.9607L38.4166 35.5278H29.287L24.9535 40.0604Z" fill="white"/>
<path d="M67.927 3.21121C67.9114 2.55958 67.7022 1.92719 67.3258 1.39414C66.9494 0.861078 66.4227 0.451321 65.8125 0.216749C65.2022 -0.017823 64.5359 -0.0666606 63.8978 0.0764202C63.2597 0.219501 62.6785 0.548065 62.2279 1.02051L50.0156 13.8181H59.1452L67.024 5.56419C67.3234 5.25116 67.5574 4.88195 67.7124 4.47802C67.8675 4.07408 67.9404 3.64347 67.927 3.21121Z" fill="white"/>
<path d="M75.273 15.9847C74.6846 15.9847 74.285 16.3535 74.0666 17.0469L71.5279 24.9873L69.4334 16.8735C69.3838 16.6271 69.2537 16.404 69.0633 16.2392C68.8423 16.0807 68.5769 15.9955 68.3046 15.9955C68.0324 15.9955 67.767 16.0807 67.546 16.2392C67.3555 16.4076 67.2191 16.6283 67.1537 16.8735L64.7594 24.8324L62.2614 17.0469C62.1853 16.7369 62.0253 16.4537 61.7988 16.2281C61.5898 16.0605 61.3268 15.974 61.0587 15.9847C60.8853 15.9604 60.7086 15.9907 60.5534 16.0714C60.3981 16.1521 60.272 16.2791 60.1927 16.4347C60.0608 16.812 60.0608 17.2227 60.1927 17.6001L63.6196 27.8529C63.7085 28.075 63.8614 28.266 64.0589 28.4018C64.2564 28.5376 64.4898 28.6123 64.7298 28.6163C64.9818 28.619 65.2281 28.5415 65.4329 28.395C65.628 28.2672 65.772 28.0754 65.84 27.8529L68.2232 19.4736L70.4955 27.8529C70.5655 28.0795 70.7153 28.2733 70.9173 28.3987C71.1206 28.5425 71.3637 28.6199 71.6131 28.62C71.863 28.6237 72.1073 28.546 72.3088 28.3987C72.4968 28.2669 72.635 28.076 72.7011 27.8566L76.1279 17.6038C76.2114 17.4215 76.2568 17.2241 76.2613 17.0237C76.2657 16.8233 76.2292 16.6242 76.1538 16.4383C76.0678 16.285 75.9384 16.1603 75.7818 16.0796C75.6252 15.999 75.4483 15.966 75.273 15.9847Z" fill="white"/>
<path d="M86.9262 16.6894C85.9867 16.1389 84.9107 15.8629 83.8213 15.8928C82.6848 15.8697 81.5632 16.1539 80.5758 16.7153C79.6404 17.2501 78.8719 18.0326 78.3554 18.976C77.8096 19.9966 77.5345 21.1391 77.556 22.2953C77.5323 23.4572 77.8238 24.604 78.3998 25.6145C78.955 26.5689 79.7645 27.3513 80.7386 27.8753C81.6007 28.3312 82.548 28.6045 83.5211 28.6781C84.4942 28.7518 85.4721 28.6241 86.3933 28.3031C87.1027 28.081 87.7686 27.7392 88.362 27.2926C88.4801 27.2149 88.5761 27.1083 88.6409 26.9831C88.7057 26.8578 88.7371 26.718 88.7321 26.5771C88.7173 26.4289 88.6726 26.2853 88.6008 26.1547C88.5289 26.0242 88.4313 25.9095 88.3139 25.8174C88.118 25.6495 87.8652 25.5624 87.6071 25.574C87.3388 25.5841 87.0802 25.6769 86.867 25.8395C86.4943 26.1034 86.0839 26.3098 85.6494 26.4517C85.1751 26.6247 84.6743 26.7145 84.1692 26.7173C83.3513 26.7329 82.5436 26.5345 81.8266 26.1419C81.268 25.8306 80.7879 25.3965 80.423 24.8724C80.0581 24.3483 79.818 23.7482 79.7209 23.1177H88.5249C88.6651 23.1227 88.8048 23.0995 88.9358 23.0494C89.0668 22.9994 89.1863 22.9235 89.2872 22.8264C89.3875 22.732 89.4665 22.6174 89.5188 22.4902C89.5712 22.363 89.5957 22.2261 89.5907 22.0888C89.6126 20.9775 89.3784 19.876 88.906 18.8691C88.4704 17.9677 87.7829 17.2109 86.9262 16.6894ZM81.5602 18.4413C82.2449 18.0422 83.0284 17.8428 83.8213 17.8659C84.4942 17.8376 85.1602 18.0103 85.7338 18.3619C86.3075 18.7134 86.7627 19.2278 87.0409 19.839C87.2527 20.2876 87.3914 20.7669 87.4517 21.2589H79.7468C79.8202 20.8316 79.9509 20.416 80.1354 20.0234C80.4455 19.369 80.9407 18.819 81.5602 18.4413Z" fill="white"/>
<path d="M26.2948 27.3603L23.9855 32.5605C23.6784 33.2206 23.8634 33.7074 24.5443 34.0135C24.7182 34.0965 24.9069 34.1441 25.0994 34.1537C25.308 34.1501 25.5095 34.0781 25.6728 33.9487C25.8361 33.8193 25.9519 33.6399 26.0024 33.4382L33.0929 17.5538C33.3989 16.8752 33.2052 16.3908 32.5119 16.1007C32.3827 16.0256 32.2382 15.9804 32.0891 15.9682C31.94 15.956 31.7901 15.9772 31.6503 16.0302C31.5105 16.0833 31.3844 16.1668 31.2812 16.2747C31.178 16.3826 31.1003 16.5122 31.0539 16.6539L27.331 25.0368L23.0826 16.6318C23.0284 16.4984 22.9475 16.3776 22.8448 16.2765C22.7421 16.1755 22.6198 16.0965 22.4853 16.0444C22.3508 15.9922 22.207 15.968 22.0628 15.9733C21.9186 15.9785 21.777 16.0131 21.6467 16.0749C21.5103 16.128 21.3858 16.2075 21.2804 16.3087C21.175 16.41 21.0907 16.5311 21.0324 16.6649C20.9762 16.8003 20.9526 16.9468 20.9635 17.0928C20.9745 17.2389 21.0196 17.3803 21.0953 17.5058L26.2948 27.3603Z" fill="white"/>
<path d="M43.5632 16.6856C42.6238 16.1347 41.5478 15.8586 40.4583 15.889C39.323 15.8665 38.2028 16.1507 37.2165 16.7114C36.2805 17.2455 35.5117 18.0281 34.9961 18.9722C34.4503 19.9927 34.1752 21.1352 34.1967 22.2914C34.1724 23.4539 34.4653 24.6011 35.0442 25.6107C35.5968 26.5686 36.4051 27.355 37.3793 27.8825C38.4281 28.4444 39.6045 28.7276 40.795 28.705C41.5517 28.6938 42.3016 28.5605 43.0154 28.3103C43.7311 28.0872 44.4024 27.7415 44.999 27.2887C45.1171 27.2111 45.2131 27.1045 45.2779 26.9792C45.3427 26.8539 45.3741 26.7141 45.3691 26.5733C45.3547 26.4254 45.3106 26.2819 45.2394 26.1514C45.1682 26.0208 45.0713 25.9059 44.9546 25.8135C44.7585 25.6459 44.5058 25.5589 44.2478 25.5701C43.9797 25.5814 43.7215 25.6741 43.5076 25.8357C43.1364 26.0996 42.7271 26.306 42.2938 26.4479C41.8193 26.6201 41.3186 26.7099 40.8135 26.7134C39.9968 26.7295 39.1902 26.531 38.4747 26.1381C37.9146 25.8285 37.4334 25.3948 37.0683 24.8705C36.7032 24.3461 36.4639 23.7451 36.369 23.1139H45.1507C45.2915 23.1185 45.4317 23.0952 45.5632 23.0451C45.6948 22.9951 45.815 22.9194 45.9168 22.8225C46.0166 22.728 46.095 22.6132 46.1467 22.486C46.1984 22.3588 46.2222 22.222 46.2165 22.0849C46.2385 20.9736 46.0042 19.8721 45.5319 18.8652C45.1008 17.9643 44.417 17.2072 43.5632 16.6856ZM38.2009 18.4374C38.8843 18.0384 39.6665 17.8391 40.4583 17.8621C41.1311 17.8337 41.7971 18.0064 42.3708 18.358C42.9445 18.7096 43.3996 19.224 43.6779 19.8352C43.8914 20.2831 44.0301 20.7627 44.0886 21.2551H36.3838C36.4584 20.8276 36.5903 20.412 36.7761 20.0196C37.0862 19.3651 37.5814 18.8152 38.2009 18.4374Z" fill="white"/>
<path d="M56.9406 22.055C56.0715 21.6347 55.147 21.3391 54.1947 21.1773C53.5476 21.0574 52.9123 20.8809 52.2963 20.6499C51.9601 20.5376 51.6634 20.3315 51.4414 20.0561C51.2984 19.8365 51.2225 19.5802 51.2231 19.3185C51.2257 19.0979 51.2943 18.8832 51.4203 18.7018C51.5462 18.5204 51.7237 18.3807 51.9299 18.3006C52.4708 18.0556 53.0606 17.9371 53.6544 17.9539C54.179 17.9453 54.7018 18.0162 55.205 18.1641C55.6765 18.315 56.1052 18.5754 56.4558 18.9239C56.6949 19.1435 56.9935 19.2884 57.3144 19.3406C57.4646 19.3747 57.6201 19.3778 57.7716 19.3499C57.923 19.322 58.0671 19.2636 58.1952 19.1783C58.3089 19.1024 58.4035 19.0013 58.4715 18.883C58.5395 18.7646 58.5792 18.6322 58.5874 18.496C58.5919 18.3541 58.5677 18.2127 58.5162 18.0803C58.4647 17.9478 58.387 17.8271 58.2877 17.7252C57.7875 17.1264 57.1415 16.6654 56.4114 16.3865C55.5495 16.0479 54.6289 15.8825 53.7025 15.8996C52.9296 15.893 52.1612 16.0177 51.4303 16.2685C50.7458 16.4935 50.1313 16.8911 49.6466 17.4228C49.1743 17.9614 48.9255 18.659 48.9508 19.3738C48.9465 19.8051 49.039 20.232 49.2215 20.6231C49.404 21.0143 49.6718 21.3598 50.0055 21.6346C50.7087 22.2517 51.8398 22.7139 53.3991 23.0213C54.6055 23.2352 55.4357 23.5118 55.8896 23.8511C56.0929 23.9786 56.2603 24.1555 56.3762 24.3651C56.4921 24.5748 56.5526 24.8104 56.5521 25.0497C56.5387 25.2864 56.4633 25.5155 56.3334 25.7141C56.2036 25.9128 56.0238 26.0741 55.8119 26.1819C55.1819 26.5129 54.4726 26.6647 53.7617 26.6208C53.099 26.6343 52.4408 26.5086 51.83 26.252C51.3545 26.0728 50.9211 25.7978 50.5569 25.4443C50.3565 25.2208 50.0819 25.0768 49.7835 25.0386C49.6171 25.0254 49.4498 25.0464 49.2919 25.1003C49.1341 25.1543 48.989 25.24 48.8657 25.3521C48.7409 25.4423 48.6363 25.5574 48.5585 25.6901C48.4808 25.8229 48.4317 25.9702 48.4142 26.1229C48.3948 26.2766 48.411 26.4327 48.4617 26.5792C48.5124 26.7256 48.5962 26.8585 48.7066 26.9675C49.3203 27.5373 50.0516 27.9666 50.8493 28.2251C51.8116 28.5645 52.8261 28.733 53.8469 28.723C54.7883 28.7534 55.7252 28.5797 56.5928 28.2141C57.2668 27.9247 57.8453 27.4518 58.2618 26.8495C58.6478 26.279 58.8504 25.605 58.8428 24.9169C58.8558 24.3439 58.7029 23.7792 58.4024 23.2905C58.0354 22.7552 57.5304 22.3284 56.9406 22.055Z" fill="white"/>
<path d="M102.468 16.7398C101.639 16.238 100.697 15.9499 99.7279 15.9016C98.7588 15.8534 97.7928 16.0463 96.9173 16.4632C96.1632 16.831 95.496 17.3539 94.9596 17.9974V11.7646C94.9705 11.6071 94.9475 11.4492 94.892 11.3013C94.8366 11.1534 94.7501 11.0191 94.6383 10.9073C94.5265 10.7955 94.3919 10.7089 94.2438 10.6532C94.0956 10.5975 93.9371 10.5741 93.7791 10.5844C93.6233 10.5799 93.4682 10.6063 93.3227 10.662C93.1772 10.7177 93.0443 10.8016 92.9316 10.909C92.8186 11.0202 92.7302 11.1538 92.6722 11.3012C92.6142 11.4486 92.5878 11.6064 92.5949 11.7646V22.2903C92.593 23.4386 92.8887 24.568 93.4534 25.569C93.9921 26.5216 94.7749 27.3145 95.7219 27.8666C96.4497 28.295 97.2553 28.5755 98.0924 28.6918C98.9295 28.8081 99.7814 28.758 100.599 28.5444C101.416 28.3307 102.183 27.9578 102.856 27.4471C103.528 26.9364 104.092 26.2981 104.515 25.569C105.086 24.5711 105.379 23.439 105.362 22.2903C105.381 21.1535 105.114 20.0301 104.585 19.0227C104.093 18.0897 103.363 17.3024 102.468 16.7398ZM102.55 24.5068C102.206 25.1499 101.694 25.6888 101.069 26.0669C100.599 26.3534 100.074 26.5407 99.5279 26.6172C98.9816 26.6936 98.4255 26.6576 97.8938 26.5114C97.3621 26.3652 96.8661 26.1119 96.4366 25.7671C96.007 25.4223 95.6529 24.9934 95.3963 24.5068C95.0359 23.8252 94.8527 23.0644 94.8634 22.294C94.8501 21.5233 95.0335 20.7619 95.3963 20.0812C95.742 19.4462 96.2534 18.9161 96.8766 18.5469C97.515 18.1774 98.2402 17.9828 98.9785 17.9828C99.7169 17.9828 100.442 18.1774 101.081 18.5469C101.7 18.9207 102.21 19.4497 102.561 20.0812C102.931 20.7596 103.118 21.522 103.105 22.294C103.112 23.0667 102.921 23.8284 102.55 24.5068Z" fill="white"/>
<path d="M117.925 16.7109C116.908 16.1723 115.775 15.8906 114.624 15.8906C113.472 15.8906 112.339 16.1723 111.323 16.7109C110.376 17.2437 109.595 18.0258 109.065 18.9716C108.505 19.9876 108.222 21.132 108.244 22.2909C108.22 23.45 108.503 24.5949 109.065 25.6101C109.595 26.5559 110.376 27.3381 111.323 27.8709C112.343 28.4108 113.481 28.6931 114.637 28.6931C115.792 28.6931 116.93 28.4108 117.95 27.8709C118.894 27.3382 119.672 26.5557 120.197 25.6101C120.752 24.5927 121.031 23.4487 121.007 22.2909C121.029 21.132 120.746 19.9876 120.186 18.9716C119.653 18.0268 118.871 17.2451 117.925 16.7109ZM118.217 24.548C117.883 25.1788 117.381 25.7058 116.766 26.0711C116.115 26.4339 115.381 26.6243 114.635 26.6243C113.888 26.6243 113.155 26.4339 112.503 26.0711C111.889 25.7029 111.385 25.1768 111.045 24.548C110.68 23.8589 110.496 23.0885 110.512 22.3093C110.497 21.5255 110.68 20.7505 111.045 20.0559C111.383 19.4224 111.887 18.8921 112.503 18.5217C113.155 18.159 113.888 17.9685 114.635 17.9685C115.381 17.9685 116.115 18.159 116.766 18.5217C117.383 18.8893 117.885 19.4204 118.217 20.0559C118.571 20.7537 118.749 21.5273 118.735 22.3093C118.75 23.0867 118.572 23.8557 118.217 24.548Z" fill="white"/>
<path d="M133.562 16.7109C132.546 16.1723 131.412 15.8906 130.261 15.8906C129.11 15.8906 127.976 16.1723 126.96 16.7109C126.018 17.2462 125.241 18.028 124.714 18.9716C124.154 19.9876 123.87 21.132 123.892 22.2909C123.868 23.45 124.152 24.5949 124.714 25.6101C125.245 26.5557 126.028 27.3377 126.975 27.8709C127.995 28.4108 129.132 28.6931 130.287 28.6931C131.442 28.6931 132.579 28.4108 133.599 27.8709C134.531 27.338 135.298 26.5596 135.816 25.6212C136.371 24.6037 136.65 23.4597 136.626 22.3019C136.648 21.143 136.364 19.9987 135.805 18.9827C135.279 18.036 134.503 17.2505 133.562 16.7109ZM133.851 24.548C133.518 25.1786 133.017 25.7056 132.404 26.0711C131.752 26.4339 131.018 26.6243 130.272 26.6243C129.526 26.6243 128.792 26.4339 128.14 26.0711C127.524 25.7051 127.02 25.1784 126.682 24.548C126.315 23.8595 126.132 23.0887 126.149 22.3093C126.132 21.5253 126.316 20.7499 126.682 20.0559C127.018 19.4208 127.522 18.89 128.14 18.5217C128.792 18.159 129.526 17.9685 130.272 17.9685C131.018 17.9685 131.752 18.159 132.404 18.5217C133.019 18.8893 133.52 19.4206 133.851 20.0559C134.208 20.7527 134.387 21.5268 134.372 22.3093C134.388 23.0872 134.209 23.8566 133.851 24.548Z" fill="white"/>
<path d="M149.724 26.9529L145.242 21.454L149.502 17.6701C149.609 17.5774 149.697 17.4646 149.76 17.338C149.824 17.2114 149.862 17.0736 149.872 16.9325C149.868 16.6507 149.761 16.38 149.571 16.1714C149.38 15.9629 149.12 15.8309 148.839 15.8003C148.696 15.7936 148.552 15.817 148.418 15.8691C148.284 15.9212 148.163 16.0008 148.062 16.1027L142.426 21.1074V11.7139C142.433 11.5635 142.409 11.4134 142.355 11.2726C142.302 11.1318 142.22 11.0034 142.115 10.8952C141.889 10.6935 141.595 10.582 141.292 10.582C140.988 10.582 140.695 10.6935 140.468 10.8952C140.363 11.0034 140.282 11.1318 140.228 11.2726C140.175 11.4134 140.151 11.5635 140.157 11.7139V27.484C140.151 27.6344 140.175 27.7845 140.228 27.9253C140.282 28.0661 140.363 28.1945 140.468 28.3028C140.695 28.5044 140.988 28.6159 141.292 28.6159C141.595 28.6159 141.889 28.5044 142.115 28.3028C142.22 28.1945 142.302 28.0661 142.355 27.9253C142.409 27.7845 142.433 27.6344 142.426 27.484V23.973L143.581 22.9293L147.988 28.3618C148.077 28.4764 148.188 28.5713 148.316 28.6406C148.443 28.7098 148.584 28.7517 148.728 28.7638C149.026 28.7865 149.322 28.6911 149.55 28.4982C149.669 28.4115 149.768 28.3012 149.842 28.1742C149.916 28.0473 149.962 27.9065 149.979 27.7606C149.992 27.6159 149.976 27.4701 149.932 27.3315C149.888 27.1929 149.817 27.0643 149.724 26.9529Z" fill="white"/>
</g>
<defs>
<clipPath id="clip0_2961_34944">
<rect width="150" height="48" fill="white"/>
</clipPath>
</defs>
</svg>
